<?xml version="1.0" encoding="UTF-8" standalone="no"?>
<svg
   xmlns:dc="http://purl.org/dc/elements/1.1/"
   xmlns:cc="http://creativecommons.org/ns#"
   xmlns:rdf="http://www.w3.org/1999/02/22-rdf-syntax-ns#"
   xmlns:svg="http://www.w3.org/2000/svg"
   xmlns="http://www.w3.org/2000/svg"
   version="1.1"
   id="svg2"
   viewBox="0 0 534 139"
   height="139"
   width="534"
   class="railroad-diagram">
  <metadata
     id="metadata132">
    <rdf:RDF>
      <cc:Work
         rdf:about="">
        <dc:format>image/svg+xml</dc:format>
        <dc:type
           rdf:resource="http://purl.org/dc/dcmitype/StillImage" />
      </cc:Work>
    </rdf:RDF>
  </metadata>
  <defs
     id="defs4">
    <style
       id="style6"
       type="text/css"><![CDATA[
        svg.railroad-diagram {
        background-color: hsl(30,20%,95%);
        }
        svg.railroad-diagram path {
            stroke-width: 3;
            stroke: black;
            fill: rgba(0,0,0,0);
        }
        svg.railroad-diagram text {
            font: bold 14px monospace;
            text-anchor: middle;
        }
        svg.railroad-diagram text.diagram-text {
            font-size: 12px;
        }
        svg.railroad-diagram text.diagram-arrow {
            font-size: 16px;
        }
        svg.railroad-diagram text.label {
            text-anchor: start;
        }
        svg.railroad-diagram text.comment {
            font: italic 12px monospace;
        }
        svg.railroad-diagram g.non-terminal text {
            /*font-style: italic;*/
        }
        svg.railroad-diagram rect {
            stroke-width: 3;
            stroke: black;
            fill: hsl(120,100%,90%);
        }
        svg.railroad-diagram path.diagram-text {
            stroke-width: 3;
            stroke: black;
            fill: white;
            cursor: help;
        }
        svg.railroad-diagram g.diagram-text:hover path.diagram-text {
            fill: #eee;
        }
      ]]></style>
  </defs>
  <g
     id="g8"
     transform="translate(.5 .5)">
    <path
       id="path10"
       d="M 20 30 v 20 m 10 -20 v 20 m -10 -10 h 20.5" />
    <path
       id="path12"
       d="M40 40h10" />
    <g
       id="g14"
       class="non-terminal">
      <path
         id="path16"
         d="M50 40h0" />
      <path
         id="path18"
         d="M190 40h0" />
      <rect
         id="rect20"
         height="22"
         width="140"
         y="29"
         x="50" />
      <text
         id="text22"
         y="44"
         x="120">UnaryExpression</text>
    </g>
    <path
       id="path24"
       d="M190 40h10" />
    <g
       id="g26">
      <path
         id="path28"
         d="M200 40h0" />
      <path
         id="path30"
         d="M494 40h0" />
      <path
         id="path32"
         d="M200 40a10 10 0 0 0 10 -10v0a10 10 0 0 1 10 -10" />
      <g
         id="g34">
        <path
           id="path36"
           d="M220 20h254" />
      </g>
      <path
         id="path38"
         d="M474 20a10 10 0 0 1 10 10v0a10 10 0 0 0 10 10" />
      <path
         id="path40"
         d="M200 40h20" />
      <g
         id="g42">
        <path
           id="path44"
           d="M220 40h0" />
        <path
           id="path46"
           d="M474 40h0" />
        <path
           id="path48"
           d="M220 40h10" />
        <g
           id="g50">
          <path
             id="path52"
             d="M230 40h0" />
          <path
             id="path54"
             d="M464 40h0" />
          <g
             id="g56">
            <path
               id="path58"
               d="M230 40h0" />
            <path
               id="path60"
               d="M314 40h0" />
            <path
               id="path62"
               d="M230 40h20" />
            <g
               id="g64"
               class="non-terminal">
              <path
                 id="path66"
                 d="M250 40h0" />
              <path
                 id="path68"
                 d="M294 40h0" />
              <rect
                 id="rect70"
                 height="22"
                 width="44"
                 y="29"
                 x="250" />
              <text
                 id="text72"
                 y="44"
                 x="272">&quot;*&quot;</text>
            </g>
            <path
               id="path74"
               d="M294 40h20" />
            <path
               id="path76"
               d="M230 40a10 10 0 0 1 10 10v10a10 10 0 0 0 10 10" />
            <g
               id="g78"
               class="non-terminal">
              <path
                 id="path80"
                 d="M250 70h0" />
              <path
                 id="path82"
                 d="M294 70h0" />
              <rect
                 id="rect84"
                 height="22"
                 width="44"
                 y="59"
                 x="250" />
              <text
                 id="text86"
                 y="74"
                 x="272">&quot;/&quot;</text>
            </g>
            <path
               id="path88"
               d="M294 70a10 10 0 0 0 10 -10v-10a10 10 0 0 1 10 -10" />
            <path
               id="path90"
               d="M230 40a10 10 0 0 1 10 10v40a10 10 0 0 0 10 10" />
            <g
               id="g92"
               class="non-terminal">
              <path
                 id="path94"
                 d="M250 100h0" />
              <path
                 id="path96"
                 d="M294 100h0" />
              <rect
                 id="rect98"
                 height="22"
                 width="44"
                 y="89"
                 x="250" />
              <text
                 id="text100"
                 y="104"
                 x="272">&quot;%&quot;</text>
            </g>
            <path
               id="path102"
               d="M294 100a10 10 0 0 0 10 -10v-40a10 10 0 0 1 10 -10" />
          </g>
          <path
             id="path104"
             d="M314 40h10" />
          <g
             id="g106"
             class="non-terminal">
            <path
               id="path108"
               d="M324 40h0" />
            <path
               id="path110"
               d="M464 40h0" />
            <rect
               id="rect112"
               height="22"
               width="140"
               y="29"
               x="324" />
            <text
               id="text114"
               y="44"
               x="394">UnaryExpression</text>
          </g>
        </g>
        <path
           id="path116"
           d="M464 40h10" />
        <path
           id="path118"
           d="M230 40a10 10 0 0 0 -10 10v59a10 10 0 0 0 10 10" />
        <g
           id="g120">
          <path
             id="path122"
             d="M230 119h234" />
        </g>
        <path
           id="path124"
           d="M464 119a10 10 0 0 0 10 -10v-59a10 10 0 0 0 -10 -10" />
      </g>
      <path
         id="path126"
         d="M474 40h20" />
    </g>
    <path
       id="path128"
       d="M 494 40 h 20 m -10 -10 v 20 m 10 -20 v 20" />
  </g>
</svg>
