<?xml version="1.0" encoding="UTF-8" standalone="no"?>
<svg
   xmlns:dc="http://purl.org/dc/elements/1.1/"
   xmlns:cc="http://creativecommons.org/ns#"
   xmlns:rdf="http://www.w3.org/1999/02/22-rdf-syntax-ns#"
   xmlns:svg="http://www.w3.org/2000/svg"
   xmlns="http://www.w3.org/2000/svg"
   version="1.1"
   id="svg2"
   viewBox="0 0 348 152"
   height="152"
   width="348"
   class="railroad-diagram">
  <metadata
     id="metadata112">
    <rdf:RDF>
      <cc:Work
         rdf:about="">
        <dc:format>image/svg+xml</dc:format>
        <dc:type
           rdf:resource="http://purl.org/dc/dcmitype/StillImage" />
      </cc:Work>
    </rdf:RDF>
  </metadata>
  <defs
     id="defs4">
    <style
       id="style6"
       type="text/css"><![CDATA[
        svg.railroad-diagram {
        background-color: hsl(30,20%,95%);
        }
        svg.railroad-diagram path {
            stroke-width: 3;
            stroke: black;
            fill: rgba(0,0,0,0);
        }
        svg.railroad-diagram text {
            font: bold 14px monospace;
            text-anchor: middle;
        }
        svg.railroad-diagram text.diagram-text {
            font-size: 12px;
        }
        svg.railroad-diagram text.diagram-arrow {
            font-size: 16px;
        }
        svg.railroad-diagram text.label {
            text-anchor: start;
        }
        svg.railroad-diagram text.comment {
            font: italic 12px monospace;
        }
        svg.railroad-diagram g.non-terminal text {
            /*font-style: italic;*/
        }
        svg.railroad-diagram rect {
            stroke-width: 3;
            stroke: black;
            fill: hsl(120,100%,90%);
        }
        svg.railroad-diagram path.diagram-text {
            stroke-width: 3;
            stroke: black;
            fill: white;
            cursor: help;
        }
        svg.railroad-diagram g.diagram-text:hover path.diagram-text {
            fill: #eee;
        }
      ]]></style>
  </defs>
  <g
     id="g8"
     transform="translate(.5 .5)">
    <path
       id="path10"
       d="M 20 21 v 20 m 10 -20 v 20 m -10 -10 h 20.5" />
    <g
       id="g12">
      <path
         id="path14"
         d="M40 31h0" />
      <path
         id="path16"
         d="M308 31h0" />
      <path
         id="path18"
         d="M40 31h20" />
      <g
         id="g20"
         class="non-terminal">
        <path
           id="path22"
           d="M60 31h84" />
        <path
           id="path24"
           d="M204 31h84" />
        <rect
           id="rect26"
           height="22"
           width="60"
           y="20"
           x="144" />
        <text
           id="text28"
           y="35"
           x="174">Value</text>
      </g>
      <path
         id="path30"
         d="M288 31h20" />
      <path
         id="path32"
         d="M40 31a10 10 0 0 1 10 10v10a10 10 0 0 0 10 10" />
      <g
         id="g34"
         class="non-terminal">
        <path
           id="path36"
           d="M60 61h80" />
        <path
           id="path38"
           d="M208 61h80" />
        <rect
           id="rect40"
           height="22"
           width="68"
           y="50"
           x="140" />
        <text
           id="text42"
           y="65"
           x="174">Symbol</text>
      </g>
      <path
         id="path44"
         d="M288 61a10 10 0 0 0 10 -10v-10a10 10 0 0 1 10 -10" />
      <path
         id="path46"
         d="M40 31a10 10 0 0 1 10 10v40a10 10 0 0 0 10 10" />
      <g
         id="g48">
        <path
           id="path50"
           d="M60 91h0" />
        <path
           id="path52"
           d="M288 91h0" />
        <g
           id="g54"
           class="non-terminal">
          <path
             id="path56"
             d="M60 91h0" />
          <path
             id="path58"
             d="M104 91h0" />
          <rect
             id="rect60"
             height="22"
             width="44"
             y="80"
             x="60" />
          <text
             id="text62"
             y="95"
             x="82">&quot;(&quot;</text>
        </g>
        <path
           id="path64"
           d="M104 91h10" />
        <path
           id="path66"
           d="M114 91h10" />
        <g
           id="g68"
           class="non-terminal">
          <path
             id="path70"
             d="M124 91h0" />
          <path
             id="path72"
             d="M224 91h0" />
          <rect
             id="rect74"
             height="22"
             width="100"
             y="80"
             x="124" />
          <text
             id="text76"
             y="95"
             x="174">Expression</text>
        </g>
        <path
           id="path78"
           d="M224 91h10" />
        <path
           id="path80"
           d="M234 91h10" />
        <g
           id="g82"
           class="non-terminal">
          <path
             id="path84"
             d="M244 91h0" />
          <path
             id="path86"
             d="M288 91h0" />
          <rect
             id="rect88"
             height="22"
             width="44"
             y="80"
             x="244" />
          <text
             id="text90"
             y="95"
             x="266">&quot;)&quot;</text>
        </g>
      </g>
      <path
         id="path92"
         d="M288 91a10 10 0 0 0 10 -10v-40a10 10 0 0 1 10 -10" />
      <path
         id="path94"
         d="M40 31a10 10 0 0 1 10 10v70a10 10 0 0 0 10 10" />
      <g
         id="g96"
         class="non-terminal">
        <path
           id="path98"
           d="M60 121h32" />
        <path
           id="path100"
           d="M256 121h32" />
        <rect
           id="rect102"
           height="22"
           width="164"
           y="110"
           x="92" />
        <text
           id="text104"
           y="125"
           x="174">FunctionInvocation</text>
      </g>
      <path
         id="path106"
         d="M288 121a10 10 0 0 0 10 -10v-70a10 10 0 0 1 10 -10" />
    </g>
    <path
       id="path108"
       d="M 308 31 h 20 m -10 -10 v 20 m 10 -20 v 20" />
  </g>
</svg>
