<?xml version="1.0" encoding="UTF-8" standalone="no"?>
<svg
   xmlns:dc="http://purl.org/dc/elements/1.1/"
   xmlns:cc="http://creativecommons.org/ns#"
   xmlns:rdf="http://www.w3.org/1999/02/22-rdf-syntax-ns#"
   xmlns:svg="http://www.w3.org/2000/svg"
   xmlns="http://www.w3.org/2000/svg"
   version="1.1"
   id="svg2"
   viewBox="0 0 212 152"
   height="152"
   width="212"
   class="railroad-diagram">
  <metadata
     id="metadata78">
    <rdf:RDF>
      <cc:Work
         rdf:about="">
        <dc:format>image/svg+xml</dc:format>
        <dc:type
           rdf:resource="http://purl.org/dc/dcmitype/StillImage" />
      </cc:Work>
    </rdf:RDF>
  </metadata>
  <defs
     id="defs4">
    <style
       id="style6"
       type="text/css"><![CDATA[
        svg.railroad-diagram {
        background-color: hsl(30,20%,95%);
        }
        svg.railroad-diagram path {
            stroke-width: 3;
            stroke: black;
            fill: rgba(0,0,0,0);
        }
        svg.railroad-diagram text {
            font: bold 14px monospace;
            text-anchor: middle;
        }
        svg.railroad-diagram text.diagram-text {
            font-size: 12px;
        }
        svg.railroad-diagram text.diagram-arrow {
            font-size: 16px;
        }
        svg.railroad-diagram text.label {
            text-anchor: start;
        }
        svg.railroad-diagram text.comment {
            font: italic 12px monospace;
        }
        svg.railroad-diagram g.non-terminal text {
            /*font-style: italic;*/
        }
        svg.railroad-diagram rect {
            stroke-width: 3;
            stroke: black;
            fill: hsl(120,100%,90%);
        }
        svg.railroad-diagram path.diagram-text {
            stroke-width: 3;
            stroke: black;
            fill: white;
            cursor: help;
        }
        svg.railroad-diagram g.diagram-text:hover path.diagram-text {
            fill: #eee;
        }
      ]]></style>
  </defs>
  <g
     id="g8"
     transform="translate(.5 .5)">
    <path
       id="path10"
       d="M 20 21 v 20 m 10 -20 v 20 m -10 -10 h 20.5" />
    <g
       id="g12">
      <path
         id="path14"
         d="M40 31h0" />
      <path
         id="path16"
         d="M172 31h0" />
      <path
         id="path18"
         d="M40 31h20" />
      <g
         id="g20"
         class="non-terminal">
        <path
           id="path22"
           d="M60 31h0" />
        <path
           id="path24"
           d="M152 31h0" />
        <rect
           id="rect26"
           height="22"
           width="92"
           y="20"
           x="60" />
        <text
           id="text28"
           y="35"
           x="106">&quot;Integer&quot;</text>
      </g>
      <path
         id="path30"
         d="M152 31h20" />
      <path
         id="path32"
         d="M40 31a10 10 0 0 1 10 10v10a10 10 0 0 0 10 10" />
      <g
         id="g34"
         class="non-terminal">
        <path
           id="path36"
           d="M60 61h4" />
        <path
           id="path38"
           d="M148 61h4" />
        <rect
           id="rect40"
           height="22"
           width="84"
           y="50"
           x="64" />
        <text
           id="text42"
           y="65"
           x="106">&quot;Double&quot;</text>
      </g>
      <path
         id="path44"
         d="M152 61a10 10 0 0 0 10 -10v-10a10 10 0 0 1 10 -10" />
      <path
         id="path46"
         d="M40 31a10 10 0 0 1 10 10v40a10 10 0 0 0 10 10" />
      <g
         id="g48"
         class="non-terminal">
        <path
           id="path50"
           d="M60 91h12" />
        <path
           id="path52"
           d="M140 91h12" />
        <rect
           id="rect54"
           height="22"
           width="68"
           y="80"
           x="72" />
        <text
           id="text56"
           y="95"
           x="106">&quot;Bool&quot;</text>
      </g>
      <path
         id="path58"
         d="M152 91a10 10 0 0 0 10 -10v-40a10 10 0 0 1 10 -10" />
      <path
         id="path60"
         d="M40 31a10 10 0 0 1 10 10v70a10 10 0 0 0 10 10" />
      <g
         id="g62"
         class="non-terminal">
        <path
           id="path64"
           d="M60 121h4" />
        <path
           id="path66"
           d="M148 121h4" />
        <rect
           id="rect68"
           height="22"
           width="84"
           y="110"
           x="64" />
        <text
           id="text70"
           y="125"
           x="106">&quot;String&quot;</text>
      </g>
      <path
         id="path72"
         d="M152 121a10 10 0 0 0 10 -10v-70a10 10 0 0 1 10 -10" />
    </g>
    <path
       id="path74"
       d="M 172 31 h 20 m -10 -10 v 20 m 10 -20 v 20" />
  </g>
</svg>
