<?xml version="1.0" encoding="UTF-8" standalone="no"?>
<svg
   xmlns:dc="http://purl.org/dc/elements/1.1/"
   xmlns:cc="http://creativecommons.org/ns#"
   xmlns:rdf="http://www.w3.org/1999/02/22-rdf-syntax-ns#"
   xmlns:svg="http://www.w3.org/2000/svg"
   xmlns="http://www.w3.org/2000/svg"
   version="1.1"
   id="svg2"
   viewBox="0 0 598 259"
   height="259"
   width="598"
   class="railroad-diagram">
  <metadata
     id="metadata246">
    <rdf:RDF>
      <cc:Work
         rdf:about="">
        <dc:format>image/svg+xml</dc:format>
        <dc:type
           rdf:resource="http://purl.org/dc/dcmitype/StillImage" />
      </cc:Work>
    </rdf:RDF>
  </metadata>
  <defs
     id="defs4">
    <style
       id="style6"
       type="text/css"><![CDATA[
        svg.railroad-diagram {
        background-color: hsl(30,20%,95%);
        }
        svg.railroad-diagram path {
            stroke-width: 3;
            stroke: black;
            fill: rgba(0,0,0,0);
        }
        svg.railroad-diagram text {
            font: bold 14px monospace;
            text-anchor: middle;
        }
        svg.railroad-diagram text.diagram-text {
            font-size: 12px;
        }
        svg.railroad-diagram text.diagram-arrow {
            font-size: 16px;
        }
        svg.railroad-diagram text.label {
            text-anchor: start;
        }
        svg.railroad-diagram text.comment {
            font: italic 12px monospace;
        }
        svg.railroad-diagram g.non-terminal text {
            /*font-style: italic;*/
        }
        svg.railroad-diagram rect {
            stroke-width: 3;
            stroke: black;
            fill: hsl(120,100%,90%);
        }
        svg.railroad-diagram path.diagram-text {
            stroke-width: 3;
            stroke: black;
            fill: white;
            cursor: help;
        }
        svg.railroad-diagram g.diagram-text:hover path.diagram-text {
            fill: #eee;
        }
      ]]></style>
  </defs>
  <g
     id="g8"
     transform="translate(.5 .5)">
    <path
       id="path10"
       d="M 20 90 v 20 m 10 -20 v 20 m -10 -10 h 20.5" />
    <g
       id="g12">
      <path
         id="path14"
         d="M40 100h0" />
      <path
         id="path16"
         d="M558 100h0" />
      <path
         id="path18"
         d="M40 100a10 10 0 0 0 10 -10v-49a10 10 0 0 1 10 -10" />
      <g
         id="g20">
        <path
           id="path22"
           d="M60 31h134" />
        <path
           id="path24"
           d="M404 31h134" />
        <g
           id="g26">
          <path
             id="path28"
             d="M194 31h0" />
          <path
             id="path30"
             d="M286 31h0" />
          <path
             id="path32"
             d="M194 31h20" />
          <g
             id="g34"
             class="non-terminal">
            <path
               id="path36"
               d="M214 31h0" />
            <path
               id="path38"
               d="M266 31h0" />
            <rect
               id="rect40"
               height="22"
               width="52"
               y="20"
               x="214" />
            <text
               id="text42"
               y="35"
               x="240">&quot;++&quot;</text>
          </g>
          <path
             id="path44"
             d="M266 31h20" />
          <path
             id="path46"
             d="M194 31a10 10 0 0 1 10 10v10a10 10 0 0 0 10 10" />
          <g
             id="g48"
             class="non-terminal">
            <path
               id="path50"
               d="M214 61h0" />
            <path
               id="path52"
               d="M266 61h0" />
            <rect
               id="rect54"
               height="22"
               width="52"
               y="50"
               x="214" />
            <text
               id="text56"
               y="65"
               x="240">&quot;--&quot;</text>
          </g>
          <path
             id="path58"
             d="M266 61a10 10 0 0 0 10 -10v-10a10 10 0 0 1 10 -10" />
        </g>
        <path
           id="path60"
           d="M286 31h10" />
        <g
           id="g62"
           class="non-terminal">
          <path
             id="path64"
             d="M296 31h0" />
          <path
             id="path66"
             d="M404 31h0" />
          <rect
             id="rect68"
             height="22"
             width="108"
             y="20"
             x="296" />
          <text
             id="text70"
             y="35"
             x="350">Variable ID</text>
        </g>
      </g>
      <path
         id="path72"
         d="M538 31a10 10 0 0 1 10 10v49a10 10 0 0 0 10 10" />
      <path
         id="path74"
         d="M40 100h20" />
      <g
         id="g76">
        <path
           id="path78"
           d="M60 100h0" />
        <path
           id="path80"
           d="M538 100h0" />
        <g
           id="g82">
          <path
             id="path84"
             d="M60 100h0" />
          <path
             id="path86"
             d="M372 100h0" />
          <path
             id="path88"
             d="M60 100a10 10 0 0 0 10 -10v0a10 10 0 0 1 10 -10" />
          <g
             id="g90">
            <path
               id="path92"
               d="M80 80h272" />
          </g>
          <path
             id="path94"
             d="M352 80a10 10 0 0 1 10 10v0a10 10 0 0 0 10 10" />
          <path
             id="path96"
             d="M60 100h20" />
          <g
             id="g98">
            <path
               id="path100"
               d="M80 100h0" />
            <path
               id="path102"
               d="M352 100h0" />
            <path
               id="path104"
               d="M80 100h10" />
            <g
               id="g106">
              <path
                 id="path108"
                 d="M90 100h0" />
              <path
                 id="path110"
                 d="M342 100h0" />
              <path
                 id="path112"
                 d="M90 100h20" />
              <g
                 id="g114"
                 class="non-terminal">
                <path
                   id="path116"
                   d="M110 100h84" />
                <path
                   id="path118"
                   d="M238 100h84" />
                <rect
                   id="rect120"
                   height="22"
                   width="44"
                   y="89"
                   x="194" />
                <text
                   id="text122"
                   y="104"
                   x="216">&quot;+&quot;</text>
              </g>
              <path
                 id="path124"
                 d="M322 100h20" />
              <path
                 id="path126"
                 d="M90 100a10 10 0 0 1 10 10v10a10 10 0 0 0 10 10" />
              <g
                 id="g128"
                 class="non-terminal">
                <path
                   id="path130"
                   d="M110 130h84" />
                <path
                   id="path132"
                   d="M238 130h84" />
                <rect
                   id="rect134"
                   height="22"
                   width="44"
                   y="119"
                   x="194" />
                <text
                   id="text136"
                   y="134"
                   x="216">&quot;-&quot;</text>
              </g>
              <path
                 id="path138"
                 d="M322 130a10 10 0 0 0 10 -10v-10a10 10 0 0 1 10 -10" />
              <path
                 id="path140"
                 d="M90 100a10 10 0 0 1 10 10v40a10 10 0 0 0 10 10" />
              <g
                 id="g142"
                 class="non-terminal">
                <path
                   id="path144"
                   d="M110 160h84" />
                <path
                   id="path146"
                   d="M238 160h84" />
                <rect
                   id="rect148"
                   height="22"
                   width="44"
                   y="149"
                   x="194" />
                <text
                   id="text150"
                   y="164"
                   x="216">&quot;~&quot;</text>
              </g>
              <path
                 id="path152"
                 d="M322 160a10 10 0 0 0 10 -10v-40a10 10 0 0 1 10 -10" />
              <path
                 id="path154"
                 d="M90 100a10 10 0 0 1 10 10v70a10 10 0 0 0 10 10" />
              <g
                 id="g156"
                 class="non-terminal">
                <path
                   id="path158"
                   d="M110 190h84" />
                <path
                   id="path160"
                   d="M238 190h84" />
                <rect
                   id="rect162"
                   height="22"
                   width="44"
                   y="179"
                   x="194" />
                <text
                   id="text164"
                   y="194"
                   x="216">&quot;!&quot;</text>
              </g>
              <path
                 id="path166"
                 d="M322 190a10 10 0 0 0 10 -10v-70a10 10 0 0 1 10 -10" />
              <path
                 id="path168"
                 d="M90 100a10 10 0 0 1 10 10v100a10 10 0 0 0 10 10" />
              <g
                 id="g170">
                <path
                   id="path172"
                   d="M110 220h0" />
                <path
                   id="path174"
                   d="M322 220h0" />
                <g
                   id="g176"
                   class="non-terminal">
                  <path
                     id="path178"
                     d="M110 220h0" />
                  <path
                     id="path180"
                     d="M154 220h0" />
                  <rect
                     id="rect182"
                     height="22"
                     width="44"
                     y="209"
                     x="110" />
                  <text
                     id="text184"
                     y="224"
                     x="132">&quot;(&quot;</text>
                </g>
                <path
                   id="path186"
                   d="M154 220h10" />
                <path
                   id="path188"
                   d="M164 220h10" />
                <g
                   id="g190"
                   class="non-terminal">
                  <path
                     id="path192"
                     d="M174 220h0" />
                  <path
                     id="path194"
                     d="M258 220h0" />
                  <rect
                     id="rect196"
                     height="22"
                     width="84"
                     y="209"
                     x="174" />
                  <text
                     id="text198"
                     y="224"
                     x="216">TypeName</text>
                </g>
                <path
                   id="path200"
                   d="M258 220h10" />
                <path
                   id="path202"
                   d="M268 220h10" />
                <g
                   id="g204"
                   class="non-terminal">
                  <path
                     id="path206"
                     d="M278 220h0" />
                  <path
                     id="path208"
                     d="M322 220h0" />
                  <rect
                     id="rect210"
                     height="22"
                     width="44"
                     y="209"
                     x="278" />
                  <text
                     id="text212"
                     y="224"
                     x="300">&quot;)&quot;</text>
                </g>
              </g>
              <path
                 id="path214"
                 d="M322 220a10 10 0 0 0 10 -10v-100a10 10 0 0 1 10 -10" />
            </g>
            <path
               id="path216"
               d="M342 100h10" />
            <path
               id="path218"
               d="M90 100a10 10 0 0 0 -10 10v119a10 10 0 0 0 10 10" />
            <g
               id="g220">
              <path
                 id="path222"
                 d="M90 239h252" />
            </g>
            <path
               id="path224"
               d="M342 239a10 10 0 0 0 10 -10v-119a10 10 0 0 0 -10 -10" />
          </g>
          <path
             id="path226"
             d="M352 100h20" />
        </g>
        <path
           id="path228"
           d="M372 100h10" />
        <g
           id="g230"
           class="non-terminal">
          <path
             id="path232"
             d="M382 100h0" />
          <path
             id="path234"
             d="M538 100h0" />
          <rect
             id="rect236"
             height="22"
             width="156"
             y="89"
             x="382" />
          <text
             id="text238"
             y="104"
             x="460">PostFixExpression</text>
        </g>
      </g>
      <path
         id="path240"
         d="M538 100h20" />
    </g>
    <path
       id="path242"
       d="M 558 100 h 20 m -10 -10 v 20 m 10 -20 v 20" />
  </g>
</svg>
