<svg xmlns="http://www.w3.org/2000/svg" class="railroad-diagram"

width="678" height="109" viewBox="0 0 678 109">

 <defs>
    <style type="text/css">
      <![CDATA[
        svg.railroad-diagram {
        background-color: hsl(30,20%,95%);
        }
        svg.railroad-diagram path {
            stroke-width: 3;
            stroke: black;
            fill: rgba(0,0,0,0);
        }
        svg.railroad-diagram text {
            font: bold 14px monospace;
            text-anchor: middle;
        }
        svg.railroad-diagram text.diagram-text {
            font-size: 12px;
        }
        svg.railroad-diagram text.diagram-arrow {
            font-size: 16px;
        }
        svg.railroad-diagram text.label {
            text-anchor: start;
        }
        svg.railroad-diagram text.comment {
            font: italic 12px monospace;
        }
        svg.railroad-diagram g.non-terminal text {
            /*font-style: italic;*/
        }
        svg.railroad-diagram rect {
            stroke-width: 3;
            stroke: black;
            fill: hsl(120,100%,90%);
        }
        svg.railroad-diagram path.diagram-text {
            stroke-width: 3;
            stroke: black;
            fill: white;
            cursor: help;
        }
        svg.railroad-diagram g.diagram-text:hover path.diagram-text {
            fill: #eee;
        }
      ]]>
    </style>
  </defs>

<g transform="translate(.5 .5)">
<path d="M 20 30 v 20 m 10 -20 v 20 m -10 -10 h 20.5"></path>
<path d="M40 40h10"></path>
<g class="non-terminal">
<path d="M50 40h0"></path>
<path d="M262 40h0"></path>
<rect x="50" y="29" width="212" height="22"></rect>
<text x="156" y="44">MultiplicativeExpression</text>
</g>
<path d="M262 40h10"></path>
<g>
<path d="M272 40h0"></path>
<path d="M638 40h0"></path>
<path d="M272 40a10 10 0 0 0 10 -10v0a10 10 0 0 1 10 -10"></path>
<g>
<path d="M292 20h326"></path>
</g>
<path d="M618 20a10 10 0 0 1 10 10v0a10 10 0 0 0 10 10"></path>
<path d="M272 40h20"></path>
<g>
<path d="M292 40h0"></path>
<path d="M618 40h0"></path>
<path d="M292 40h10"></path>
<g>
<path d="M302 40h0"></path>
<path d="M608 40h0"></path>
<g>
<path d="M302 40h0"></path>
<path d="M386 40h0"></path>
<path d="M302 40h20"></path>
<g class="non-terminal">
<path d="M322 40h0"></path>
<path d="M366 40h0"></path>
<rect x="322" y="29" width="44" height="22"></rect>
<text x="344" y="44">"+"</text>
</g>
<path d="M366 40h20"></path>
<path d="M302 40a10 10 0 0 1 10 10v10a10 10 0 0 0 10 10"></path>
<g class="non-terminal">
<path d="M322 70h0"></path>
<path d="M366 70h0"></path>
<rect x="322" y="59" width="44" height="22"></rect>
<text x="344" y="74">"-"</text>
</g>
<path d="M366 70a10 10 0 0 0 10 -10v-10a10 10 0 0 1 10 -10"></path>
</g>
<path d="M386 40h10"></path>
<g class="non-terminal">
<path d="M396 40h0"></path>
<path d="M608 40h0"></path>
<rect x="396" y="29" width="212" height="22"></rect>
<text x="502" y="44">MultiplicativeExpression</text>
</g>
</g>
<path d="M608 40h10"></path>
<path d="M302 40a10 10 0 0 0 -10 10v29a10 10 0 0 0 10 10"></path>
<g>
<path d="M302 89h306"></path>
</g>
<path d="M608 89a10 10 0 0 0 10 -10v-29a10 10 0 0 0 -10 -10"></path>
</g>
<path d="M618 40h20"></path>
</g>
<path d="M 638 40 h 20 m -10 -10 v 20 m 10 -20 v 20"></path>
</g>

</svg>