<svg xmlns="http://www.w3.org/2000/svg" class="railroad-diagram" width="540" height="71" viewBox="0 0 540 71">
 <defs>
    <style type="text/css">
      <![CDATA[
        svg.railroad-diagram {
        background-color: hsl(30,20%,95%);
        }
        svg.railroad-diagram path {
            stroke-width: 3;
            stroke: black;
            fill: rgba(0,0,0,0);
        }
        svg.railroad-diagram text {
            font: bold 14px monospace;
            text-anchor: middle;
        }
        svg.railroad-diagram text.diagram-text {
            font-size: 12px;
        }
        svg.railroad-diagram text.diagram-arrow {
            font-size: 16px;
        }
        svg.railroad-diagram text.label {
            text-anchor: start;
        }
        svg.railroad-diagram text.comment {
            font: italic 12px monospace;
        }
        svg.railroad-diagram g.non-terminal text {
            /*font-style: italic;*/
        }
        svg.railroad-diagram rect {
            stroke-width: 3;
            stroke: black;
            fill: hsl(120,100%,90%);
        }
        svg.railroad-diagram path.diagram-text {
            stroke-width: 3;
            stroke: black;
            fill: white;
            cursor: help;
        }
        svg.railroad-diagram g.diagram-text:hover path.diagram-text {
            fill: #eee;
        }
      ]]>
    </style>
  </defs>

<g transform="translate(.5 .5)">
<path d="M 20 30 v 20 m 10 -20 v 20 m -10 -10 h 20.5"></path>
<path d="M40 40h10"></path>
<g class="non-terminal">
<path d="M50 40h0"></path>
<path d="M222 40h0"></path>
<rect x="50" y="29" width="172" height="22"></rect>
<text x="136" y="44">VariableDeclaration</text>
</g>
<path d="M222 40h10"></path>
<g>
<path d="M232 40h0"></path>
<path d="M436 40h0"></path>
<path d="M232 40a10 10 0 0 0 10 -10v0a10 10 0 0 1 10 -10"></path>
<g>
<path d="M252 20h164"></path>
</g>
<path d="M416 20a10 10 0 0 1 10 10v0a10 10 0 0 0 10 10"></path>
<path d="M232 40h20"></path>
<g>
<path d="M252 40h0"></path>
<path d="M416 40h0"></path>
<g class="non-terminal">
<path d="M252 40h0"></path>
<path d="M296 40h0"></path>
<rect x="252" y="29" width="44" height="22"></rect>
<text x="274" y="44">"="</text>
</g>
<path d="M296 40h10"></path>
<path d="M306 40h10"></path>
<g class="non-terminal">
<path d="M316 40h0"></path>
<path d="M416 40h0"></path>
<rect x="316" y="29" width="100" height="22"></rect>
<text x="366" y="44">Expression</text>
</g>
</g>
<path d="M416 40h20"></path>
</g>
<path d="M436 40h10"></path>
<g class="terminal">
<path d="M446 40h0"></path>
<path d="M490 40h0"></path>
<rect x="446" y="29" width="44" height="22" rx="10" ry="10"></rect>
<text x="468" y="44">";"</text>
</g>
<path d="M490 40h10"></path>
<path d="M 500 40 h 20 m -10 -10 v 20 m 10 -20 v 20"></path>
</g>

</svg>