<?xml version="1.0" encoding="UTF-8" standalone="no"?>
<svg
   xmlns:dc="http://purl.org/dc/elements/1.1/"
   xmlns:cc="http://creativecommons.org/ns#"
   xmlns:rdf="http://www.w3.org/1999/02/22-rdf-syntax-ns#"
   xmlns:svg="http://www.w3.org/2000/svg"
   xmlns="http://www.w3.org/2000/svg"
   version="1.1"
   id="svg2"
   viewBox="0 0 538 371"
   height="371"
   width="538"
   class="railroad-diagram">
  <metadata
     id="metadata226">
    <rdf:RDF>
      <cc:Work
         rdf:about="">
        <dc:format>image/svg+xml</dc:format>
        <dc:type
           rdf:resource="http://purl.org/dc/dcmitype/StillImage" />
      </cc:Work>
    </rdf:RDF>
  </metadata>
  <defs
     id="defs4">
    <style
       id="style6"
       type="text/css"><![CDATA[
        svg.railroad-diagram {
        background-color: hsl(30,20%,95%);
        }
        svg.railroad-diagram path {
            stroke-width: 3;
            stroke: black;
            fill: rgba(0,0,0,0);
        }
        svg.railroad-diagram text {
            font: bold 14px monospace;
            text-anchor: middle;
        }
        svg.railroad-diagram text.diagram-text {
            font-size: 12px;
        }
        svg.railroad-diagram text.diagram-arrow {
            font-size: 16px;
        }
        svg.railroad-diagram text.label {
            text-anchor: start;
        }
        svg.railroad-diagram text.comment {
            font: italic 12px monospace;
        }
        svg.railroad-diagram g.non-terminal text {
            /*font-style: italic;*/
        }
        svg.railroad-diagram rect {
            stroke-width: 3;
            stroke: black;
            fill: hsl(120,100%,90%);
        }
        svg.railroad-diagram path.diagram-text {
            stroke-width: 3;
            stroke: black;
            fill: white;
            cursor: help;
        }
        svg.railroad-diagram g.diagram-text:hover path.diagram-text {
            fill: #eee;
        }
      ]]></style>
  </defs>
  <g
     id="g8"
     transform="translate(.5 .5)">
    <path
       id="path10"
       d="M 20 30 v 20 m 10 -20 v 20 m -10 -10 h 20.5" />
    <g
       id="g12">
      <path
         id="path14"
         d="M40 40h0" />
      <path
         id="path16"
         d="M290 40h0" />
      <path
         id="path18"
         d="M40 40a10 10 0 0 0 10 -10v0a10 10 0 0 1 10 -10" />
      <g
         id="g20">
        <path
           id="path22"
           d="M60 20h210" />
      </g>
      <path
         id="path24"
         d="M270 20a10 10 0 0 1 10 10v0a10 10 0 0 0 10 10" />
      <path
         id="path26"
         d="M40 40h20" />
      <g
         id="g28">
        <path
           id="path30"
           d="M60 40h0" />
        <path
           id="path32"
           d="M270 40h0" />
        <g
           id="g34"
           class="non-terminal">
          <path
             id="path36"
             d="M60 40h0" />
          <path
             id="path38"
             d="M160 40h0" />
          <rect
             id="rect40"
             height="22"
             width="100"
             y="29"
             x="60" />
          <text
             id="text42"
             y="44"
             x="110">VariableID</text>
        </g>
        <path
           id="path44"
           d="M160 40h10" />
        <g
           id="g46">
          <path
             id="path48"
             d="M170 40h0" />
          <path
             id="path50"
             d="M270 40h0" />
          <path
             id="path52"
             d="M170 40h20" />
          <g
             id="g54"
             class="non-terminal">
            <path
               id="path56"
               d="M190 40h8" />
            <path
               id="path58"
               d="M242 40h8" />
            <rect
               id="rect60"
               height="22"
               width="44"
               y="29"
               x="198" />
            <text
               id="text62"
               y="44"
               x="220">&quot;=&quot;</text>
          </g>
          <path
             id="path64"
             d="M250 40h20" />
          <path
             id="path66"
             d="M170 40a10 10 0 0 1 10 10v10a10 10 0 0 0 10 10" />
          <g
             id="g68"
             class="non-terminal">
            <path
               id="path70"
               d="M190 70h4" />
            <path
               id="path72"
               d="M246 70h4" />
            <rect
               id="rect74"
               height="22"
               width="52"
               y="59"
               x="194" />
            <text
               id="text76"
               y="74"
               x="220">&quot;+=&quot;</text>
          </g>
          <path
             id="path78"
             d="M250 70a10 10 0 0 0 10 -10v-10a10 10 0 0 1 10 -10" />
          <path
             id="path80"
             d="M170 40a10 10 0 0 1 10 10v40a10 10 0 0 0 10 10" />
          <g
             id="g82"
             class="non-terminal">
            <path
               id="path84"
               d="M190 100h4" />
            <path
               id="path86"
               d="M246 100h4" />
            <rect
               id="rect88"
               height="22"
               width="52"
               y="89"
               x="194" />
            <text
               id="text90"
               y="104"
               x="220">&quot;-=&quot;</text>
          </g>
          <path
             id="path92"
             d="M250 100a10 10 0 0 0 10 -10v-40a10 10 0 0 1 10 -10" />
          <path
             id="path94"
             d="M170 40a10 10 0 0 1 10 10v70a10 10 0 0 0 10 10" />
          <g
             id="g96"
             class="non-terminal">
            <path
               id="path98"
               d="M190 130h4" />
            <path
               id="path100"
               d="M246 130h4" />
            <rect
               id="rect102"
               height="22"
               width="52"
               y="119"
               x="194" />
            <text
               id="text104"
               y="134"
               x="220">&quot;*=&quot;</text>
          </g>
          <path
             id="path106"
             d="M250 130a10 10 0 0 0 10 -10v-70a10 10 0 0 1 10 -10" />
          <path
             id="path108"
             d="M170 40a10 10 0 0 1 10 10v100a10 10 0 0 0 10 10" />
          <g
             id="g110"
             class="non-terminal">
            <path
               id="path112"
               d="M190 160h4" />
            <path
               id="path114"
               d="M246 160h4" />
            <rect
               id="rect116"
               height="22"
               width="52"
               y="149"
               x="194" />
            <text
               id="text118"
               y="164"
               x="220">&quot;/=&quot;</text>
          </g>
          <path
             id="path120"
             d="M250 160a10 10 0 0 0 10 -10v-100a10 10 0 0 1 10 -10" />
          <path
             id="path122"
             d="M170 40a10 10 0 0 1 10 10v130a10 10 0 0 0 10 10" />
          <g
             id="g124"
             class="non-terminal">
            <path
               id="path126"
               d="M190 190h4" />
            <path
               id="path128"
               d="M246 190h4" />
            <rect
               id="rect130"
               height="22"
               width="52"
               y="179"
               x="194" />
            <text
               id="text132"
               y="194"
               x="220">&quot;%=&quot;</text>
          </g>
          <path
             id="path134"
             d="M250 190a10 10 0 0 0 10 -10v-130a10 10 0 0 1 10 -10" />
          <path
             id="path136"
             d="M170 40a10 10 0 0 1 10 10v160a10 10 0 0 0 10 10" />
          <g
             id="g138"
             class="non-terminal">
            <path
               id="path140"
               d="M190 220h0" />
            <path
               id="path142"
               d="M250 220h0" />
            <rect
               id="rect144"
               height="22"
               width="60"
               y="209"
               x="190" />
            <text
               id="text146"
               y="224"
               x="220">&quot;&gt;&gt;=&quot;</text>
          </g>
          <path
             id="path148"
             d="M250 220a10 10 0 0 0 10 -10v-160a10 10 0 0 1 10 -10" />
          <path
             id="path150"
             d="M170 40a10 10 0 0 1 10 10v190a10 10 0 0 0 10 10" />
          <g
             id="g152"
             class="non-terminal">
            <path
               id="path154"
               d="M190 250h0" />
            <path
               id="path156"
               d="M250 250h0" />
            <rect
               id="rect158"
               height="22"
               width="60"
               y="239"
               x="190" />
            <text
               id="text160"
               y="254"
               x="220">&quot;&lt;&lt;=&quot;</text>
          </g>
          <path
             id="path162"
             d="M250 250a10 10 0 0 0 10 -10v-190a10 10 0 0 1 10 -10" />
          <path
             id="path164"
             d="M170 40a10 10 0 0 1 10 10v220a10 10 0 0 0 10 10" />
          <g
             id="g166"
             class="non-terminal">
            <path
               id="path168"
               d="M190 280h4" />
            <path
               id="path170"
               d="M246 280h4" />
            <rect
               id="rect172"
               height="22"
               width="52"
               y="269"
               x="194" />
            <text
               id="text174"
               y="284"
               x="220">&quot;&amp;=&quot;</text>
          </g>
          <path
             id="path176"
             d="M250 280a10 10 0 0 0 10 -10v-220a10 10 0 0 1 10 -10" />
          <path
             id="path178"
             d="M170 40a10 10 0 0 1 10 10v250a10 10 0 0 0 10 10" />
          <g
             id="g180"
             class="non-terminal">
            <path
               id="path182"
               d="M190 310h4" />
            <path
               id="path184"
               d="M246 310h4" />
            <rect
               id="rect186"
               height="22"
               width="52"
               y="299"
               x="194" />
            <text
               id="text188"
               y="314"
               x="220">&quot;|=&quot;</text>
          </g>
          <path
             id="path190"
             d="M250 310a10 10 0 0 0 10 -10v-250a10 10 0 0 1 10 -10" />
          <path
             id="path192"
             d="M170 40a10 10 0 0 1 10 10v280a10 10 0 0 0 10 10" />
          <g
             id="g194"
             class="non-terminal">
            <path
               id="path196"
               d="M190 340h4" />
            <path
               id="path198"
               d="M246 340h4" />
            <rect
               id="rect200"
               height="22"
               width="52"
               y="329"
               x="194" />
            <text
               id="text202"
               y="344"
               x="220">&quot;^=&quot;</text>
          </g>
          <path
             id="path204"
             d="M250 340a10 10 0 0 0 10 -10v-280a10 10 0 0 1 10 -10" />
        </g>
      </g>
      <path
         id="path206"
         d="M270 40h20" />
    </g>
    <path
       id="path208"
       d="M290 40h10" />
    <g
       id="g210"
       class="terminal">
      <path
         id="path212"
         d="M300 40h0" />
      <path
         id="path214"
         d="M488 40h0" />
      <rect
         id="rect216"
         ry="10"
         rx="10"
         height="22"
         width="188"
         y="29"
         x="300" />
      <text
         id="text218"
         y="44"
         x="394">ConditionalExpression</text>
    </g>
    <path
       id="path220"
       d="M488 40h10" />
    <path
       id="path222"
       d="M 498 40 h 20 m -10 -10 v 20 m 10 -20 v 20" />
  </g>
</svg>
