<?xml version="1.0" encoding="UTF-8" standalone="no"?>
<svg
   xmlns:dc="http://purl.org/dc/elements/1.1/"
   xmlns:cc="http://creativecommons.org/ns#"
   xmlns:rdf="http://www.w3.org/1999/02/22-rdf-syntax-ns#"
   xmlns:svg="http://www.w3.org/2000/svg"
   xmlns="http://www.w3.org/2000/svg"
   version="1.1"
   id="svg2"
   viewBox="0 0 856 80"
   height="80"
   width="856"
   class="railroad-diagram">
  <metadata
     id="metadata124">
    <rdf:RDF>
      <cc:Work
         rdf:about="">
        <dc:format>image/svg+xml</dc:format>
        <dc:type
           rdf:resource="http://purl.org/dc/dcmitype/StillImage" />
      </cc:Work>
    </rdf:RDF>
  </metadata>
  <defs
     id="defs4">
    <style
       id="style6"
       type="text/css"><![CDATA[
        svg.railroad-diagram {
        background-color: hsl(30,20%,95%);
        }
        svg.railroad-diagram path {
            stroke-width: 3;
            stroke: black;
            fill: rgba(0,0,0,0);
        }
        svg.railroad-diagram text {
            font: bold 14px monospace;
            text-anchor: middle;
        }
        svg.railroad-diagram text.diagram-text {
            font-size: 12px;
        }
        svg.railroad-diagram text.diagram-arrow {
            font-size: 16px;
        }
        svg.railroad-diagram text.label {
            text-anchor: start;
        }
        svg.railroad-diagram text.comment {
            font: italic 12px monospace;
        }
        svg.railroad-diagram g.non-terminal text {
            /*font-style: italic;*/
        }
        svg.railroad-diagram rect {
            stroke-width: 3;
            stroke: black;
            fill: hsl(120,100%,90%);
        }
        svg.railroad-diagram path.diagram-text {
            stroke-width: 3;
            stroke: black;
            fill: white;
            cursor: help;
        }
        svg.railroad-diagram g.diagram-text:hover path.diagram-text {
            fill: #eee;
        }
      ]]></style>
  </defs>
  <g
     id="g8"
     transform="translate(.5 .5)">
    <path
       id="path10"
       d="M 20 30 v 20 m 10 -20 v 20 m -10 -10 h 20.5" />
    <path
       id="path12"
       d="M40 40h10" />
    <g
       id="g14"
       class="non-terminal">
      <path
         id="path16"
         d="M50 40h0" />
      <path
         id="path18"
         d="M222 40h0" />
      <rect
         id="rect20"
         height="22"
         width="172"
         y="29"
         x="50" />
      <text
         id="text22"
         y="44"
         x="136">LogicalORExpression</text>
    </g>
    <path
       id="path24"
       d="M222 40h10" />
    <g
       id="g26">
      <path
         id="path28"
         d="M232 40h0" />
      <path
         id="path30"
         d="M816 40h0" />
      <path
         id="path32"
         d="M232 40a10 10 0 0 0 10 -10v0a10 10 0 0 1 10 -10" />
      <g
         id="g34">
        <path
           id="path36"
           d="M252 20h544" />
      </g>
      <path
         id="path38"
         d="M796 20a10 10 0 0 1 10 10v0a10 10 0 0 0 10 10" />
      <path
         id="path40"
         d="M232 40h20" />
      <g
         id="g42">
        <path
           id="path44"
           d="M252 40h0" />
        <path
           id="path46"
           d="M796 40h0" />
        <path
           id="path48"
           d="M252 40h10" />
        <g
           id="g50">
          <path
             id="path52"
             d="M262 40h0" />
          <path
             id="path54"
             d="M786 40h0" />
          <g
             id="g56"
             class="non-terminal">
            <path
               id="path58"
               d="M262 40h0" />
            <path
               id="path60"
               d="M306 40h0" />
            <rect
               id="rect62"
               height="22"
               width="44"
               y="29"
               x="262" />
            <text
               id="text64"
               y="44"
               x="284">&quot;?&quot;</text>
          </g>
          <path
             id="path66"
             d="M306 40h10" />
          <path
             id="path68"
             d="M316 40h10" />
          <g
             id="g70"
             class="non-terminal">
            <path
               id="path72"
               d="M326 40h0" />
            <path
               id="path74"
               d="M514 40h0" />
            <rect
               id="rect76"
               height="22"
               width="188"
               y="29"
               x="326" />
            <text
               id="text78"
               y="44"
               x="420">ConditionalExpression</text>
          </g>
          <path
             id="path80"
             d="M514 40h10" />
          <path
             id="path82"
             d="M524 40h10" />
          <g
             id="g84"
             class="non-terminal">
            <path
               id="path86"
               d="M534 40h0" />
            <path
               id="path88"
               d="M578 40h0" />
            <rect
               id="rect90"
               height="22"
               width="44"
               y="29"
               x="534" />
            <text
               id="text92"
               y="44"
               x="556">&quot;:&quot;</text>
          </g>
          <path
             id="path94"
             d="M578 40h10" />
          <path
             id="path96"
             d="M588 40h10" />
          <g
             id="g98"
             class="non-terminal">
            <path
               id="path100"
               d="M598 40h0" />
            <path
               id="path102"
               d="M786 40h0" />
            <rect
               id="rect104"
               height="22"
               width="188"
               y="29"
               x="598" />
            <text
               id="text106"
               y="44"
               x="692">ConditionalExpression</text>
          </g>
        </g>
        <path
           id="path108"
           d="M786 40h10" />
        <path
           id="path110"
           d="M262 40a10 10 0 0 0 -10 10v0a10 10 0 0 0 10 10" />
        <g
           id="g112">
          <path
             id="path114"
             d="M262 60h524" />
        </g>
        <path
           id="path116"
           d="M786 60a10 10 0 0 0 10 -10v0a10 10 0 0 0 -10 -10" />
      </g>
      <path
         id="path118"
         d="M796 40h20" />
    </g>
    <path
       id="path120"
       d="M 816 40 h 20 m -10 -10 v 20 m 10 -20 v 20" />
  </g>
</svg>
