<?xml version="1.0" encoding="UTF-8" standalone="no"?>
<svg
   xmlns:dc="http://purl.org/dc/elements/1.1/"
   xmlns:cc="http://creativecommons.org/ns#"
   xmlns:rdf="http://www.w3.org/1999/02/22-rdf-syntax-ns#"
   xmlns:svg="http://www.w3.org/2000/svg"
   xmlns="http://www.w3.org/2000/svg"
   version="1.1"
   id="svg2"
   viewBox="0 0 648 80"
   height="80"
   width="648"
   class="railroad-diagram">
  <metadata
     id="metadata138">
    <rdf:RDF>
      <cc:Work
         rdf:about="">
        <dc:format>image/svg+xml</dc:format>
        <dc:type
           rdf:resource="http://purl.org/dc/dcmitype/StillImage" />
      </cc:Work>
    </rdf:RDF>
  </metadata>
  <!-- /adjust width, height and viewbox -->
  <defs
     id="defs4">
    <style
       id="style6"
       type="text/css"><![CDATA[
        svg.railroad-diagram {
        background-color: hsl(30,20%,95%);
        }
        svg.railroad-diagram path {
            stroke-width: 3;
            stroke: black;
            fill: rgba(0,0,0,0);
        }
        svg.railroad-diagram text {
            font: bold 14px monospace;
            text-anchor: middle;
        }
        svg.railroad-diagram text.diagram-text {
            font-size: 12px;
        }
        svg.railroad-diagram text.diagram-arrow {
            font-size: 16px;
        }
        svg.railroad-diagram text.label {
            text-anchor: start;
        }
        svg.railroad-diagram text.comment {
            font: italic 12px monospace;
        }
        svg.railroad-diagram g.non-terminal text {
            /*font-style: italic;*/
        }
        svg.railroad-diagram rect {
            stroke-width: 3;
            stroke: black;
            fill: hsl(120,100%,90%);
        }
        svg.railroad-diagram path.diagram-text {
            stroke-width: 3;
            stroke: black;
            fill: white;
            cursor: help;
        }
        svg.railroad-diagram g.diagram-text:hover path.diagram-text {
            fill: #eee;
        }
      ]]></style>
  </defs>
  <g
     id="g8"
     transform="translate(.5 .5)">
    <path
       id="path10"
       d="M 20 30 v 20 m 10 -20 v 20 m -10 -10 h 20.5" />
    <path
       id="path12"
       d="M40 40h10" />
    <g
       id="g14"
       class="non-terminal">
      <path
         id="path16"
         d="M50 40h0" />
      <path
         id="path18"
         d="M150 40h0" />
      <rect
         id="rect20"
         height="22"
         width="100"
         y="29"
         x="50" />
      <text
         id="text22"
         y="44"
         x="100">ReturnType</text>
    </g>
    <path
       id="path24"
       d="M150 40h10" />
    <path
       id="path26"
       d="M160 40h10" />
    <g
       id="g28"
       class="non-terminal">
      <path
         id="path30"
         d="M170 40h0" />
      <path
         id="path32"
         d="M206 40h0" />
      <rect
         id="rect34"
         height="22"
         width="36"
         y="29"
         x="170" />
      <text
         id="text36"
         y="44"
         x="188">ID</text>
    </g>
    <path
       id="path38"
       d="M206 40h10" />
    <path
       id="path40"
       d="M216 40h10" />
    <g
       id="g42"
       class="non-terminal">
      <path
         id="path44"
         d="M226 40h0" />
      <path
         id="path46"
         d="M254 40h0" />
      <rect
         id="rect48"
         height="22"
         width="28"
         y="29"
         x="226" />
      <text
         id="text50"
         y="44"
         x="240">(</text>
    </g>
    <path
       id="path52"
       d="M254 40h10" />
    <g
       id="g54">
      <path
         id="path56"
         d="M264 40h0" />
      <path
         id="path58"
         d="M560 40h0" />
      <path
         id="path60"
         d="M264 40a10 10 0 0 0 10 -10v0a10 10 0 0 1 10 -10" />
      <g
         id="g62">
        <path
           id="path64"
           d="M284 20h256" />
      </g>
      <path
         id="path66"
         d="M540 20a10 10 0 0 1 10 10v0a10 10 0 0 0 10 10" />
      <path
         id="path68"
         d="M264 40h20" />
      <g
         id="g70">
        <path
           id="path72"
           d="M284 40h0" />
        <path
           id="path74"
           d="M540 40h0" />
        <path
           id="path76"
           d="M284 40h10" />
        <g
           id="g78">
          <path
             id="path80"
             d="M294 40h0" />
          <path
             id="path82"
             d="M530 40h0" />
          <g
             id="g84"
             class="non-terminal">
            <path
               id="path86"
               d="M294 40h0" />
            <path
               id="path88"
               d="M466 40h0" />
            <rect
               id="rect90"
               height="22"
               width="172"
               y="29"
               x="294" />
            <text
               id="text92"
               y="44"
               x="380">VariableDeclaration</text>
          </g>
          <path
             id="path94"
             d="M466 40h10" />
          <path
             id="path96"
             d="M476 40h10" />
          <g
             id="g98"
             class="non-terminal">
            <path
               id="path100"
               d="M486 40h0" />
            <path
               id="path102"
               d="M530 40h0" />
            <rect
               id="rect104"
               height="22"
               width="44"
               y="29"
               x="486" />
            <text
               id="text106"
               y="44"
               x="508">&quot;,&quot;</text>
          </g>
        </g>
        <path
           id="path108"
           d="M530 40h10" />
        <path
           id="path110"
           d="M294 40a10 10 0 0 0 -10 10v0a10 10 0 0 0 10 10" />
        <g
           id="g112">
          <path
             id="path114"
             d="M294 60h236" />
        </g>
        <path
           id="path116"
           d="M530 60a10 10 0 0 0 10 -10v0a10 10 0 0 0 -10 -10" />
      </g>
      <path
         id="path118"
         d="M540 40h20" />
    </g>
    <path
       id="path120"
       d="M560 40h10" />
    <g
       id="g122"
       class="terminal">
      <path
         id="path124"
         d="M570 40h0" />
      <path
         id="path126"
         d="M598 40h0" />
      <rect
         id="rect128"
         ry="10"
         rx="10"
         height="22"
         width="28"
         y="29"
         x="570" />
      <text
         id="text130"
         y="44"
         x="584">)</text>
    </g>
    <path
       id="path132"
       d="M598 40h10" />
    <path
       id="path134"
       d="M 608 40 h 20 m -10 -10 v 20 m 10 -20 v 20" />
  </g>
</svg>
