<?xml version="1.0" encoding="UTF-8" standalone="no"?>
<svg
   xmlns:dc="http://purl.org/dc/elements/1.1/"
   xmlns:cc="http://creativecommons.org/ns#"
   xmlns:rdf="http://www.w3.org/1999/02/22-rdf-syntax-ns#"
   xmlns:svg="http://www.w3.org/2000/svg"
   xmlns="http://www.w3.org/2000/svg"
   version="1.1"
   id="svg2"
   viewBox="0 0 1072 80"
   height="80"
   width="1072"
   class="railroad-diagram">
  <metadata
     id="metadata204">
    <rdf:RDF>
      <cc:Work
         rdf:about="">
        <dc:format>image/svg+xml</dc:format>
        <dc:type
           rdf:resource="http://purl.org/dc/dcmitype/StillImage" />
      </cc:Work>
    </rdf:RDF>
  </metadata>
  <defs
     id="defs4">
    <style
       id="style6"
       type="text/css"><![CDATA[
        svg.railroad-diagram {
        background-color: hsl(30,20%,95%);
        }
        svg.railroad-diagram path {
            stroke-width: 3;
            stroke: black;
            fill: rgba(0,0,0,0);
        }
        svg.railroad-diagram text {
            font: bold 14px monospace;
            text-anchor: middle;
        }
        svg.railroad-diagram text.diagram-text {
            font-size: 12px;
        }
        svg.railroad-diagram text.diagram-arrow {
            font-size: 16px;
        }
        svg.railroad-diagram text.label {
            text-anchor: start;
        }
        svg.railroad-diagram text.comment {
            font: italic 12px monospace;
        }
        svg.railroad-diagram g.non-terminal text {
            /*font-style: italic;*/
        }
        svg.railroad-diagram rect {
            stroke-width: 3;
            stroke: black;
            fill: hsl(120,100%,90%);
        }
        svg.railroad-diagram path.diagram-text {
            stroke-width: 3;
            stroke: black;
            fill: white;
            cursor: help;
        }
        svg.railroad-diagram g.diagram-text:hover path.diagram-text {
            fill: #eee;
        }
      ]]></style>
  </defs>
  <g
     id="g8"
     transform="translate(.5 .5)">
    <path
       id="path10"
       d="M 20 30 v 20 m 10 -20 v 20 m -10 -10 h 20.5" />
    <path
       id="path12"
       d="M40 40h10" />
    <g
       id="g14"
       class="non-terminal">
      <path
         id="path16"
         d="M50 40h0" />
      <path
         id="path18"
         d="M222 40h0" />
      <rect
         id="rect20"
         height="22"
         width="172"
         y="29"
         x="50" />
      <text
         id="text22"
         y="44"
         x="136">FunctionDeclaration</text>
    </g>
    <path
       id="path24"
       d="M222 40h10" />
    <path
       id="path26"
       d="M232 40h10" />
    <g
       id="g28"
       class="non-terminal">
      <path
         id="path30"
         d="M242 40h0" />
      <path
         id="path32"
         d="M286 40h0" />
      <rect
         id="rect34"
         height="22"
         width="44"
         y="29"
         x="242" />
      <text
         id="text36"
         y="44"
         x="264">&quot;{&quot;</text>
    </g>
    <path
       id="path38"
       d="M286 40h10" />
    <g
       id="g40">
      <path
         id="path42"
         d="M296 40h0" />
      <path
         id="path44"
         d="M584 40h0" />
      <path
         id="path46"
         d="M296 40a10 10 0 0 0 10 -10v0a10 10 0 0 1 10 -10" />
      <g
         id="g48">
        <path
           id="path50"
           d="M316 20h248" />
      </g>
      <path
         id="path52"
         d="M564 20a10 10 0 0 1 10 10v0a10 10 0 0 0 10 10" />
      <path
         id="path54"
         d="M296 40h20" />
      <g
         id="g56">
        <path
           id="path58"
           d="M316 40h0" />
        <path
           id="path60"
           d="M564 40h0" />
        <path
           id="path62"
           d="M316 40h10" />
        <g
           id="g64">
          <path
             id="path66"
             d="M326 40h0" />
          <path
             id="path68"
             d="M554 40h0" />
          <g
             id="g70"
             class="non-terminal">
            <path
               id="path72"
               d="M326 40h0" />
            <path
               id="path74"
               d="M490 40h0" />
            <rect
               id="rect76"
               height="22"
               width="164"
               y="29"
               x="326" />
            <text
               id="text78"
               y="44"
               x="408">VariableDefinition</text>
          </g>
          <path
             id="path80"
             d="M490 40h10" />
          <path
             id="path82"
             d="M500 40h10" />
          <g
             id="g84"
             class="non-terminal">
            <path
               id="path86"
               d="M510 40h0" />
            <path
               id="path88"
               d="M554 40h0" />
            <rect
               id="rect90"
               height="22"
               width="44"
               y="29"
               x="510" />
            <text
               id="text92"
               y="44"
               x="532">&quot;;&quot;</text>
          </g>
        </g>
        <path
           id="path94"
           d="M554 40h10" />
        <path
           id="path96"
           d="M326 40a10 10 0 0 0 -10 10v0a10 10 0 0 0 10 10" />
        <g
           id="g98">
          <path
             id="path100"
             d="M326 60h228" />
        </g>
        <path
           id="path102"
           d="M554 60a10 10 0 0 0 10 -10v0a10 10 0 0 0 -10 -10" />
      </g>
      <path
         id="path104"
         d="M564 40h20" />
    </g>
    <g
       id="g106">
      <path
         id="path108"
         d="M584 40h0" />
      <path
         id="path110"
         d="M808 40h0" />
      <path
         id="path112"
         d="M584 40a10 10 0 0 0 10 -10v0a10 10 0 0 1 10 -10" />
      <g
         id="g114">
        <path
           id="path116"
           d="M604 20h184" />
      </g>
      <path
         id="path118"
         d="M788 20a10 10 0 0 1 10 10v0a10 10 0 0 0 10 10" />
      <path
         id="path120"
         d="M584 40h20" />
      <g
         id="g122">
        <path
           id="path124"
           d="M604 40h0" />
        <path
           id="path126"
           d="M788 40h0" />
        <path
           id="path128"
           d="M604 40h10" />
        <g
           id="g130">
          <path
             id="path132"
             d="M614 40h0" />
          <path
             id="path134"
             d="M778 40h0" />
          <g
             id="g136"
             class="non-terminal">
            <path
               id="path138"
               d="M614 40h0" />
            <path
               id="path140"
               d="M714 40h0" />
            <rect
               id="rect142"
               height="22"
               width="100"
               y="29"
               x="614" />
            <text
               id="text144"
               y="44"
               x="664">Expression</text>
          </g>
          <path
             id="path146"
             d="M714 40h10" />
          <path
             id="path148"
             d="M724 40h10" />
          <g
             id="g150"
             class="non-terminal">
            <path
               id="path152"
               d="M734 40h0" />
            <path
               id="path154"
               d="M778 40h0" />
            <rect
               id="rect156"
               height="22"
               width="44"
               y="29"
               x="734" />
            <text
               id="text158"
               y="44"
               x="756">&quot;;&quot;</text>
          </g>
        </g>
        <path
           id="path160"
           d="M778 40h10" />
        <path
           id="path162"
           d="M614 40a10 10 0 0 0 -10 10v0a10 10 0 0 0 10 10" />
        <g
           id="g164">
          <path
             id="path166"
             d="M614 60h164" />
        </g>
        <path
           id="path168"
           d="M778 60a10 10 0 0 0 10 -10v0a10 10 0 0 0 -10 -10" />
      </g>
      <path
         id="path170"
         d="M788 40h20" />
    </g>
    <path
       id="path172"
       d="M808 40h10" />
    <g
       id="g174"
       class="non-terminal">
      <path
         id="path176"
         d="M818 40h0" />
      <path
         id="path178"
         d="M958 40h0" />
      <rect
         id="rect180"
         height="22"
         width="140"
         y="29"
         x="818" />
      <text
         id="text182"
         y="44"
         x="888">ReturnStatement</text>
    </g>
    <path
       id="path184"
       d="M958 40h10" />
    <path
       id="path186"
       d="M968 40h10" />
    <g
       id="g188"
       class="terminal">
      <path
         id="path190"
         d="M978 40h0" />
      <path
         id="path192"
         d="M1022 40h0" />
      <rect
         id="rect194"
         ry="10"
         rx="10"
         height="22"
         width="44"
         y="29"
         x="978" />
      <text
         id="text196"
         y="44"
         x="1000">&quot;}&quot;</text>
    </g>
    <path
       id="path198"
       d="M1022 40h10" />
    <path
       id="path200"
       d="M 1032 40 h 20 m -10 -10 v 20 m 10 -20 v 20" />
  </g>
</svg>
