<?xml version="1.0" encoding="UTF-8" standalone="no"?>
<svg
   xmlns:dc="http://purl.org/dc/elements/1.1/"
   xmlns:cc="http://creativecommons.org/ns#"
   xmlns:rdf="http://www.w3.org/1999/02/22-rdf-syntax-ns#"
   xmlns:svg="http://www.w3.org/2000/svg"
   xmlns="http://www.w3.org/2000/svg"
   version="1.1"
   id="svg2"
   viewBox="0 0 388 71"
   height="71"
   width="388"
   class="railroad-diagram">
  <metadata
     id="metadata72">
    <rdf:RDF>
      <cc:Work
         rdf:about="">
        <dc:format>image/svg+xml</dc:format>
        <dc:type
           rdf:resource="http://purl.org/dc/dcmitype/StillImage" />
      </cc:Work>
    </rdf:RDF>
  </metadata>
  <defs
     id="defs4">
    <style
       id="style6"
       type="text/css"><![CDATA[
        svg.railroad-diagram {
        background-color: hsl(30,20%,95%);
        }
        svg.railroad-diagram path {
            stroke-width: 3;
            stroke: black;
            fill: rgba(0,0,0,0);
        }
        svg.railroad-diagram text {
            font: bold 14px monospace;
            text-anchor: middle;
        }
        svg.railroad-diagram text.diagram-text {
            font-size: 12px;
        }
        svg.railroad-diagram text.diagram-arrow {
            font-size: 16px;
        }
        svg.railroad-diagram text.label {
            text-anchor: start;
        }
        svg.railroad-diagram text.comment {
            font: italic 12px monospace;
        }
        svg.railroad-diagram g.non-terminal text {
            /*font-style: italic;*/
        }
        svg.railroad-diagram rect {
            stroke-width: 3;
            stroke: black;
            fill: hsl(120,100%,90%);
        }
        svg.railroad-diagram path.diagram-text {
            stroke-width: 3;
            stroke: black;
            fill: white;
            cursor: help;
        }
        svg.railroad-diagram g.diagram-text:hover path.diagram-text {
            fill: #eee;
        }
      ]]></style>
  </defs>
  <g
     id="g8"
     transform="translate(.5 .5)">
    <path
       id="path10"
       d="M 20 30 v 20 m 10 -20 v 20 m -10 -10 h 20.5" />
    <path
       id="path12"
       d="M40 40h10" />
    <g
       id="g14"
       class="non-terminal">
      <path
         id="path16"
         d="M50 40h0" />
      <path
         id="path18"
         d="M134 40h0" />
      <rect
         id="rect20"
         height="22"
         width="84"
         y="29"
         x="50" />
      <text
         id="text22"
         y="44"
         x="92">&quot;return&quot;</text>
    </g>
    <path
       id="path24"
       d="M134 40h10" />
    <g
       id="g26">
      <path
         id="path28"
         d="M144 40h0" />
      <path
         id="path30"
         d="M284 40h0" />
      <path
         id="path32"
         d="M144 40a10 10 0 0 0 10 -10v0a10 10 0 0 1 10 -10" />
      <g
         id="g34">
        <path
           id="path36"
           d="M164 20h100" />
      </g>
      <path
         id="path38"
         d="M264 20a10 10 0 0 1 10 10v0a10 10 0 0 0 10 10" />
      <path
         id="path40"
         d="M144 40h20" />
      <g
         id="g42"
         class="non-terminal">
        <path
           id="path44"
           d="M164 40h0" />
        <path
           id="path46"
           d="M264 40h0" />
        <rect
           id="rect48"
           height="22"
           width="100"
           y="29"
           x="164" />
        <text
           id="text50"
           y="44"
           x="214">Expression</text>
      </g>
      <path
         id="path52"
         d="M264 40h20" />
    </g>
    <path
       id="path54"
       d="M284 40h10" />
    <g
       id="g56"
       class="terminal">
      <path
         id="path58"
         d="M294 40h0" />
      <path
         id="path60"
         d="M338 40h0" />
      <rect
         id="rect62"
         ry="10"
         rx="10"
         height="22"
         width="44"
         y="29"
         x="294" />
      <text
         id="text64"
         y="44"
         x="316">&quot;;&quot;</text>
    </g>
    <path
       id="path66"
       d="M338 40h10" />
    <path
       id="path68"
       d="M 348 40 h 20 m -10 -10 v 20 m 10 -20 v 20" />
  </g>
</svg>
