<?xml version="1.0" encoding="UTF-8" standalone="no"?>
<svg
   xmlns:dc="http://purl.org/dc/elements/1.1/"
   xmlns:cc="http://creativecommons.org/ns#"
   xmlns:rdf="http://www.w3.org/1999/02/22-rdf-syntax-ns#"
   xmlns:svg="http://www.w3.org/2000/svg"
   xmlns="http://www.w3.org/2000/svg"
   version="1.1"
   id="svg2"
   viewBox="0 0 590 109"
   height="109"
   width="590"
   class="railroad-diagram">
  <metadata
     id="metadata118">
    <rdf:RDF>
      <cc:Work
         rdf:about="">
        <dc:format>image/svg+xml</dc:format>
        <dc:type
           rdf:resource="http://purl.org/dc/dcmitype/StillImage" />
      </cc:Work>
    </rdf:RDF>
  </metadata>
  <defs
     id="defs4">
    <style
       id="style6"
       type="text/css"><![CDATA[
        svg.railroad-diagram {
        background-color: hsl(30,20%,95%);
        }
        svg.railroad-diagram path {
            stroke-width: 3;
            stroke: black;
            fill: rgba(0,0,0,0);
        }
        svg.railroad-diagram text {
            font: bold 14px monospace;
            text-anchor: middle;
        }
        svg.railroad-diagram text.diagram-text {
            font-size: 12px;
        }
        svg.railroad-diagram text.diagram-arrow {
            font-size: 16px;
        }
        svg.railroad-diagram text.label {
            text-anchor: start;
        }
        svg.railroad-diagram text.comment {
            font: italic 12px monospace;
        }
        svg.railroad-diagram g.non-terminal text {
            /*font-style: italic;*/
        }
        svg.railroad-diagram rect {
            stroke-width: 3;
            stroke: black;
            fill: hsl(120,100%,90%);
        }
        svg.railroad-diagram path.diagram-text {
            stroke-width: 3;
            stroke: black;
            fill: white;
            cursor: help;
        }
        svg.railroad-diagram g.diagram-text:hover path.diagram-text {
            fill: #eee;
        }
      ]]></style>
  </defs>
  <g
     id="g8"
     transform="translate(.5 .5)">
    <path
       id="path10"
       d="M 20 30 v 20 m 10 -20 v 20 m -10 -10 h 20.5" />
    <path
       id="path12"
       d="M40 40h10" />
    <g
       id="g14"
       class="non-terminal">
      <path
         id="path16"
         d="M50 40h0" />
      <path
         id="path18"
         d="M214 40h0" />
      <rect
         id="rect20"
         height="22"
         width="164"
         y="29"
         x="50" />
      <text
         id="text22"
         y="44"
         x="132">AdditiveExpression</text>
    </g>
    <path
       id="path24"
       d="M214 40h10" />
    <g
       id="g26">
      <path
         id="path28"
         d="M224 40h0" />
      <path
         id="path30"
         d="M550 40h0" />
      <path
         id="path32"
         d="M224 40a10 10 0 0 0 10 -10v0a10 10 0 0 1 10 -10" />
      <g
         id="g34">
        <path
           id="path36"
           d="M244 20h286" />
      </g>
      <path
         id="path38"
         d="M530 20a10 10 0 0 1 10 10v0a10 10 0 0 0 10 10" />
      <path
         id="path40"
         d="M224 40h20" />
      <g
         id="g42">
        <path
           id="path44"
           d="M244 40h0" />
        <path
           id="path46"
           d="M530 40h0" />
        <path
           id="path48"
           d="M244 40h10" />
        <g
           id="g50">
          <path
             id="path52"
             d="M254 40h0" />
          <path
             id="path54"
             d="M520 40h0" />
          <g
             id="g56">
            <path
               id="path58"
               d="M254 40h0" />
            <path
               id="path60"
               d="M346 40h0" />
            <path
               id="path62"
               d="M254 40h20" />
            <g
               id="g64"
               class="non-terminal">
              <path
                 id="path66"
                 d="M274 40h0" />
              <path
                 id="path68"
                 d="M326 40h0" />
              <rect
                 id="rect70"
                 height="22"
                 width="52"
                 y="29"
                 x="274" />
              <text
                 id="text72"
                 y="44"
                 x="300">&quot;&lt;&lt;&quot;</text>
            </g>
            <path
               id="path74"
               d="M326 40h20" />
            <path
               id="path76"
               d="M254 40a10 10 0 0 1 10 10v10a10 10 0 0 0 10 10" />
            <g
               id="g78"
               class="non-terminal">
              <path
                 id="path80"
                 d="M274 70h0" />
              <path
                 id="path82"
                 d="M326 70h0" />
              <rect
                 id="rect84"
                 height="22"
                 width="52"
                 y="59"
                 x="274" />
              <text
                 id="text86"
                 y="74"
                 x="300">&quot;&gt;&gt;&quot;</text>
            </g>
            <path
               id="path88"
               d="M326 70a10 10 0 0 0 10 -10v-10a10 10 0 0 1 10 -10" />
          </g>
          <path
             id="path90"
             d="M346 40h10" />
          <g
             id="g92"
             class="non-terminal">
            <path
               id="path94"
               d="M356 40h0" />
            <path
               id="path96"
               d="M520 40h0" />
            <rect
               id="rect98"
               height="22"
               width="164"
               y="29"
               x="356" />
            <text
               id="text100"
               y="44"
               x="438">AdditiveExpression</text>
          </g>
        </g>
        <path
           id="path102"
           d="M520 40h10" />
        <path
           id="path104"
           d="M254 40a10 10 0 0 0 -10 10v29a10 10 0 0 0 10 10" />
        <g
           id="g106">
          <path
             id="path108"
             d="M254 89h266" />
        </g>
        <path
           id="path110"
           d="M520 89a10 10 0 0 0 10 -10v-29a10 10 0 0 0 -10 -10" />
      </g>
      <path
         id="path112"
         d="M530 40h20" />
    </g>
    <path
       id="path114"
       d="M 550 40 h 20 m -10 -10 v 20 m 10 -20 v 20" />
  </g>
</svg>
