<svg xmlns="http://www.w3.org/2000/svg" class="railroad-diagram" 
width="1072" height="80" viewBox="0 0 1072 80">
 <defs>
    <style type="text/css">
      <![CDATA[
        svg.railroad-diagram {
        background-color: hsl(30,20%,95%);
        }
        svg.railroad-diagram path {
            stroke-width: 3;
            stroke: black;
            fill: rgba(0,0,0,0);
        }
        svg.railroad-diagram text {
            font: bold 14px monospace;
            text-anchor: middle;
        }
        svg.railroad-diagram text.diagram-text {
            font-size: 12px;
        }
        svg.railroad-diagram text.diagram-arrow {
            font-size: 16px;
        }
        svg.railroad-diagram text.label {
            text-anchor: start;
        }
        svg.railroad-diagram text.comment {
            font: italic 12px monospace;
        }
        svg.railroad-diagram g.non-terminal text {
            /*font-style: italic;*/
        }
        svg.railroad-diagram rect {
            stroke-width: 3;
            stroke: black;
            fill: hsl(120,100%,90%);
        }
        svg.railroad-diagram path.diagram-text {
            stroke-width: 3;
            stroke: black;
            fill: white;
            cursor: help;
        }
        svg.railroad-diagram g.diagram-text:hover path.diagram-text {
            fill: #eee;
        }
      ]]>
    </style>
  </defs>

<g transform="translate(.5 .5)">
<path d="M 20 30 v 20 m 10 -20 v 20 m -10 -10 h 20.5"></path>
<path d="M40 40h10"></path>
<g class="non-terminal">
<path d="M50 40h0"></path>
<path d="M222 40h0"></path>
<rect x="50" y="29" width="172" height="22"></rect>
<text x="136" y="44">FunctionDeclaration</text>
</g>
<path d="M222 40h10"></path>
<path d="M232 40h10"></path>
<g class="non-terminal">
<path d="M242 40h0"></path>
<path d="M286 40h0"></path>
<rect x="242" y="29" width="44" height="22"></rect>
<text x="264" y="44">"{"</text>
</g>
<path d="M286 40h10"></path>
<g>
<path d="M296 40h0"></path>
<path d="M584 40h0"></path>
<path d="M296 40a10 10 0 0 0 10 -10v0a10 10 0 0 1 10 -10"></path>
<g>
<path d="M316 20h248"></path>
</g>
<path d="M564 20a10 10 0 0 1 10 10v0a10 10 0 0 0 10 10"></path>
<path d="M296 40h20"></path>
<g>
<path d="M316 40h0"></path>
<path d="M564 40h0"></path>
<path d="M316 40h10"></path>
<g>
<path d="M326 40h0"></path>
<path d="M554 40h0"></path>
<g class="non-terminal">
<path d="M326 40h0"></path>
<path d="M490 40h0"></path>
<rect x="326" y="29" width="164" height="22"></rect>
<text x="408" y="44">VariableDefinition</text>
</g>
<path d="M490 40h10"></path>
<path d="M500 40h10"></path>
<g class="non-terminal">
<path d="M510 40h0"></path>
<path d="M554 40h0"></path>
<rect x="510" y="29" width="44" height="22"></rect>
<text x="532" y="44">";"</text>
</g>
</g>
<path d="M554 40h10"></path>
<path d="M326 40a10 10 0 0 0 -10 10v0a10 10 0 0 0 10 10"></path>
<g>
<path d="M326 60h228"></path>
</g>
<path d="M554 60a10 10 0 0 0 10 -10v0a10 10 0 0 0 -10 -10"></path>
</g>
<path d="M564 40h20"></path>
</g>
<g>
<path d="M584 40h0"></path>
<path d="M808 40h0"></path>
<path d="M584 40a10 10 0 0 0 10 -10v0a10 10 0 0 1 10 -10"></path>
<g>
<path d="M604 20h184"></path>
</g>
<path d="M788 20a10 10 0 0 1 10 10v0a10 10 0 0 0 10 10"></path>
<path d="M584 40h20"></path>
<g>
<path d="M604 40h0"></path>
<path d="M788 40h0"></path>
<path d="M604 40h10"></path>
<g>
<path d="M614 40h0"></path>
<path d="M778 40h0"></path>
<g class="non-terminal">
<path d="M614 40h0"></path>
<path d="M714 40h0"></path>
<rect x="614" y="29" width="100" height="22"></rect>
<text x="664" y="44">Expression</text>
</g>
<path d="M714 40h10"></path>
<path d="M724 40h10"></path>
<g class="non-terminal">
<path d="M734 40h0"></path>
<path d="M778 40h0"></path>
<rect x="734" y="29" width="44" height="22"></rect>
<text x="756" y="44">";"</text>
</g>
</g>
<path d="M778 40h10"></path>
<path d="M614 40a10 10 0 0 0 -10 10v0a10 10 0 0 0 10 10"></path>
<g>
<path d="M614 60h164"></path>
</g>
<path d="M778 60a10 10 0 0 0 10 -10v0a10 10 0 0 0 -10 -10"></path>
</g>
<path d="M788 40h20"></path>
</g>
<path d="M808 40h10"></path>
<g class="non-terminal">
<path d="M818 40h0"></path>
<path d="M958 40h0"></path>
<rect x="818" y="29" width="140" height="22"></rect>
<text x="888" y="44">ReturnStatement</text>
</g>
<path d="M958 40h10"></path>
<path d="M968 40h10"></path>
<g class="terminal">
<path d="M978 40h0"></path>
<path d="M1022 40h0"></path>
<rect x="978" y="29" width="44" height="22" rx="10" ry="10"></rect>
<text x="1000" y="44">"}"</text>
</g>
<path d="M1022 40h10"></path>
<path d="M 1032 40 h 20 m -10 -10 v 20 m 10 -20 v 20"></path>
</g>

</svg>