<svg xmlns="http://www.w3.org/2000/svg" class="railroad-diagram"

width="330" height="122" viewBox="0 0 330 122">

 <defs>
    <style type="text/css">
      <![CDATA[
        svg.railroad-diagram {
        background-color: hsl(30,20%,95%);
        }
        svg.railroad-diagram path {
            stroke-width: 3;
            stroke: black;
            fill: rgba(0,0,0,0);
        }
        svg.railroad-diagram text {
            font: bold 14px monospace;
            text-anchor: middle;
        }
        svg.railroad-diagram text.diagram-text {
            font-size: 12px;
        }
        svg.railroad-diagram text.diagram-arrow {
            font-size: 16px;
        }
        svg.railroad-diagram text.label {
            text-anchor: start;
        }
        svg.railroad-diagram text.comment {
            font: italic 12px monospace;
        }
        svg.railroad-diagram g.non-terminal text {
            /*font-style: italic;*/
        }
        svg.railroad-diagram rect {
            stroke-width: 3;
            stroke: black;
            fill: hsl(120,100%,90%);
        }
        svg.railroad-diagram path.diagram-text {
            stroke-width: 3;
            stroke: black;
            fill: white;
            cursor: help;
        }
        svg.railroad-diagram g.diagram-text:hover path.diagram-text {
            fill: #eee;
        }
      ]]>
    </style>
  </defs>

<g transform="translate(.5 .5)">
<path d="M 20 21 v 20 m 10 -20 v 20 m -10 -10 h 20.5"></path>
<g>
<path d="M40 31h0"></path>
<path d="M290 31h0"></path>
<path d="M40 31h20"></path>
<g class="non-terminal">
<path d="M60 31h27"></path>
<path d="M243 31h27"></path>
<rect x="87" y="20" width="156" height="22"></rect>
<text x="165" y="35">PrimaryExpression</text>
</g>
<path d="M270 31h20"></path>
<path d="M40 31a10 10 0 0 1 10 10v10a10 10 0 0 0 10 10"></path>
<g>
<path d="M60 61h0"></path>
<path d="M270 61h0"></path>
<g>
<path d="M60 61h0"></path>
<path d="M152 61h0"></path>
<path d="M60 61h20"></path>
<g class="non-terminal">
<path d="M80 61h0"></path>
<path d="M132 61h0"></path>
<rect x="80" y="50" width="52" height="22"></rect>
<text x="106" y="65">"++"</text>
</g>
<path d="M132 61h20"></path>
<path d="M60 61a10 10 0 0 1 10 10v10a10 10 0 0 0 10 10"></path>
<g class="non-terminal">
<path d="M80 91h0"></path>
<path d="M132 91h0"></path>
<rect x="80" y="80" width="52" height="22"></rect>
<text x="106" y="95">"--"</text>
</g>
<path d="M132 91a10 10 0 0 0 10 -10v-10a10 10 0 0 1 10 -10"></path>
</g>
<path d="M152 61h10"></path>
<g class="non-terminal">
<path d="M162 61h0"></path>
<path d="M270 61h0"></path>
<rect x="162" y="50" width="108" height="22"></rect>
<text x="216" y="65">Variable ID</text>
</g>
</g>
<path d="M270 61a10 10 0 0 0 10 -10v-10a10 10 0 0 1 10 -10"></path>
</g>
<path d="M 290 31 h 20 m -10 -10 v 20 m 10 -20 v 20"></path>
</g>

</svg>