<svg xmlns="http://www.w3.org/2000/svg" class="railroad-diagram" width="388" height="71" viewBox="0 0 388 71">
 <defs>
    <style type="text/css">
      <![CDATA[
        svg.railroad-diagram {
        background-color: hsl(30,20%,95%);
        }
        svg.railroad-diagram path {
            stroke-width: 3;
            stroke: black;
            fill: rgba(0,0,0,0);
        }
        svg.railroad-diagram text {
            font: bold 14px monospace;
            text-anchor: middle;
        }
        svg.railroad-diagram text.diagram-text {
            font-size: 12px;
        }
        svg.railroad-diagram text.diagram-arrow {
            font-size: 16px;
        }
        svg.railroad-diagram text.label {
            text-anchor: start;
        }
        svg.railroad-diagram text.comment {
            font: italic 12px monospace;
        }
        svg.railroad-diagram g.non-terminal text {
            /*font-style: italic;*/
        }
        svg.railroad-diagram rect {
            stroke-width: 3;
            stroke: black;
            fill: hsl(120,100%,90%);
        }
        svg.railroad-diagram path.diagram-text {
            stroke-width: 3;
            stroke: black;
            fill: white;
            cursor: help;
        }
        svg.railroad-diagram g.diagram-text:hover path.diagram-text {
            fill: #eee;
        }
      ]]>
    </style>
  </defs>
    <g transform="translate(.5 .5)">
<path d="M 20 30 v 20 m 10 -20 v 20 m -10 -10 h 20.5"></path>
<path d="M40 40h10"></path>
<g class="non-terminal">
<path d="M50 40h0"></path>
<path d="M134 40h0"></path>
<rect x="50" y="29" width="84" height="22"></rect>
<text x="92" y="44">"return"</text>
</g>
<path d="M134 40h10"></path>
<g>
<path d="M144 40h0"></path>
<path d="M284 40h0"></path>
<path d="M144 40a10 10 0 0 0 10 -10v0a10 10 0 0 1 10 -10"></path>
<g>
<path d="M164 20h100"></path>
</g>
<path d="M264 20a10 10 0 0 1 10 10v0a10 10 0 0 0 10 10"></path>
<path d="M144 40h20"></path>
<g class="non-terminal">
<path d="M164 40h0"></path>
<path d="M264 40h0"></path>
<rect x="164" y="29" width="100" height="22"></rect>
<text x="214" y="44">Expression</text>
</g>
<path d="M264 40h20"></path>
</g>
<path d="M284 40h10"></path>
<g class="terminal">
<path d="M294 40h0"></path>
<path d="M338 40h0"></path>
<rect x="294" y="29" width="44" height="22" rx="10" ry="10"></rect>
<text x="316" y="44">";"</text>
</g>
<path d="M338 40h10"></path>
<path d="M 348 40 h 20 m -10 -10 v 20 m 10 -20 v 20"></path>
</g>
</svg>