<svg xmlns="http://www.w3.org/2000/svg" class="railroad-diagram"

width="228" height="92" viewBox="0 0 228 92">

 <defs>
    <style type="text/css">
      <![CDATA[
        svg.railroad-diagram {
        background-color: hsl(30,20%,95%);
        }
        svg.railroad-diagram path {
            stroke-width: 3;
            stroke: black;
            fill: rgba(0,0,0,0);
        }
        svg.railroad-diagram text {
            font: bold 14px monospace;
            text-anchor: middle;
        }
        svg.railroad-diagram text.diagram-text {
            font-size: 12px;
        }
        svg.railroad-diagram text.diagram-arrow {
            font-size: 16px;
        }
        svg.railroad-diagram text.label {
            text-anchor: start;
        }
        svg.railroad-diagram text.comment {
            font: italic 12px monospace;
        }
        svg.railroad-diagram g.non-terminal text {
            /*font-style: italic;*/
        }
        svg.railroad-diagram rect {
            stroke-width: 3;
            stroke: black;
            fill: hsl(120,100%,90%);
        }
        svg.railroad-diagram path.diagram-text {
            stroke-width: 3;
            stroke: black;
            fill: white;
            cursor: help;
        }
        svg.railroad-diagram g.diagram-text:hover path.diagram-text {
            fill: #eee;
        }
      ]]>
    </style>
  </defs>

<g transform="translate(.5 .5)">
<path d="M 20 21 v 20 m 10 -20 v 20 m -10 -10 h 20.5"></path>
<g>
<path d="M40 31h0"></path>
<path d="M188 31h0"></path>
<path d="M40 31h20"></path>
<g class="non-terminal">
<path d="M60 31h0"></path>
<path d="M168 31h0"></path>
<rect x="60" y="20" width="108" height="22"></rect>
<text x="114" y="35">Variable ID</text>
</g>
<path d="M168 31h20"></path>
<path d="M40 31a10 10 0 0 1 10 10v10a10 10 0 0 0 10 10"></path>
<g class="non-terminal">
<path d="M60 61h28"></path>
<path d="M140 61h28"></path>
<rect x="88" y="50" width="52" height="22"></rect>
<text x="114" y="65">Data</text>
</g>
<path d="M168 61a10 10 0 0 0 10 -10v-10a10 10 0 0 1 10 -10"></path>
</g>
<path d="M 188 31 h 20 m -10 -10 v 20 m 10 -20 v 20"></path>
</g>

</svg>