<svg xmlns="http://www.w3.org/2000/svg" class="railroad-diagram"

width="598" height="259" viewBox="0 0 598 259">

 <defs>
    <style type="text/css">
      <![CDATA[
        svg.railroad-diagram {
        background-color: hsl(30,20%,95%);
        }
        svg.railroad-diagram path {
            stroke-width: 3;
            stroke: black;
            fill: rgba(0,0,0,0);
        }
        svg.railroad-diagram text {
            font: bold 14px monospace;
            text-anchor: middle;
        }
        svg.railroad-diagram text.diagram-text {
            font-size: 12px;
        }
        svg.railroad-diagram text.diagram-arrow {
            font-size: 16px;
        }
        svg.railroad-diagram text.label {
            text-anchor: start;
        }
        svg.railroad-diagram text.comment {
            font: italic 12px monospace;
        }
        svg.railroad-diagram g.non-terminal text {
            /*font-style: italic;*/
        }
        svg.railroad-diagram rect {
            stroke-width: 3;
            stroke: black;
            fill: hsl(120,100%,90%);
        }
        svg.railroad-diagram path.diagram-text {
            stroke-width: 3;
            stroke: black;
            fill: white;
            cursor: help;
        }
        svg.railroad-diagram g.diagram-text:hover path.diagram-text {
            fill: #eee;
        }
      ]]>
    </style>
  </defs>

<g transform="translate(.5 .5)">
<path d="M 20 90 v 20 m 10 -20 v 20 m -10 -10 h 20.5"></path>
<g>
<path d="M40 100h0"></path>
<path d="M558 100h0"></path>
<path d="M40 100a10 10 0 0 0 10 -10v-49a10 10 0 0 1 10 -10"></path>
<g>
<path d="M60 31h134"></path>
<path d="M404 31h134"></path>
<g>
<path d="M194 31h0"></path>
<path d="M286 31h0"></path>
<path d="M194 31h20"></path>
<g class="non-terminal">
<path d="M214 31h0"></path>
<path d="M266 31h0"></path>
<rect x="214" y="20" width="52" height="22"></rect>
<text x="240" y="35">"++"</text>
</g>
<path d="M266 31h20"></path>
<path d="M194 31a10 10 0 0 1 10 10v10a10 10 0 0 0 10 10"></path>
<g class="non-terminal">
<path d="M214 61h0"></path>
<path d="M266 61h0"></path>
<rect x="214" y="50" width="52" height="22"></rect>
<text x="240" y="65">"--"</text>
</g>
<path d="M266 61a10 10 0 0 0 10 -10v-10a10 10 0 0 1 10 -10"></path>
</g>
<path d="M286 31h10"></path>
<g class="non-terminal">
<path d="M296 31h0"></path>
<path d="M404 31h0"></path>
<rect x="296" y="20" width="108" height="22"></rect>
<text x="350" y="35">Variable ID</text>
</g>
</g>
<path d="M538 31a10 10 0 0 1 10 10v49a10 10 0 0 0 10 10"></path>
<path d="M40 100h20"></path>
<g>
<path d="M60 100h0"></path>
<path d="M538 100h0"></path>
<g>
<path d="M60 100h0"></path>
<path d="M372 100h0"></path>
<path d="M60 100a10 10 0 0 0 10 -10v0a10 10 0 0 1 10 -10"></path>
<g>
<path d="M80 80h272"></path>
</g>
<path d="M352 80a10 10 0 0 1 10 10v0a10 10 0 0 0 10 10"></path>
<path d="M60 100h20"></path>
<g>
<path d="M80 100h0"></path>
<path d="M352 100h0"></path>
<path d="M80 100h10"></path>
<g>
<path d="M90 100h0"></path>
<path d="M342 100h0"></path>
<path d="M90 100h20"></path>
<g class="non-terminal">
<path d="M110 100h84"></path>
<path d="M238 100h84"></path>
<rect x="194" y="89" width="44" height="22"></rect>
<text x="216" y="104">"+"</text>
</g>
<path d="M322 100h20"></path>
<path d="M90 100a10 10 0 0 1 10 10v10a10 10 0 0 0 10 10"></path>
<g class="non-terminal">
<path d="M110 130h84"></path>
<path d="M238 130h84"></path>
<rect x="194" y="119" width="44" height="22"></rect>
<text x="216" y="134">"-"</text>
</g>
<path d="M322 130a10 10 0 0 0 10 -10v-10a10 10 0 0 1 10 -10"></path>
<path d="M90 100a10 10 0 0 1 10 10v40a10 10 0 0 0 10 10"></path>
<g class="non-terminal">
<path d="M110 160h84"></path>
<path d="M238 160h84"></path>
<rect x="194" y="149" width="44" height="22"></rect>
<text x="216" y="164">"~"</text>
</g>
<path d="M322 160a10 10 0 0 0 10 -10v-40a10 10 0 0 1 10 -10"></path>
<path d="M90 100a10 10 0 0 1 10 10v70a10 10 0 0 0 10 10"></path>
<g class="non-terminal">
<path d="M110 190h84"></path>
<path d="M238 190h84"></path>
<rect x="194" y="179" width="44" height="22"></rect>
<text x="216" y="194">"!"</text>
</g>
<path d="M322 190a10 10 0 0 0 10 -10v-70a10 10 0 0 1 10 -10"></path>
<path d="M90 100a10 10 0 0 1 10 10v100a10 10 0 0 0 10 10"></path>
<g>
<path d="M110 220h0"></path>
<path d="M322 220h0"></path>
<g class="non-terminal">
<path d="M110 220h0"></path>
<path d="M154 220h0"></path>
<rect x="110" y="209" width="44" height="22"></rect>
<text x="132" y="224">"("</text>
</g>
<path d="M154 220h10"></path>
<path d="M164 220h10"></path>
<g class="non-terminal">
<path d="M174 220h0"></path>
<path d="M258 220h0"></path>
<rect x="174" y="209" width="84" height="22"></rect>
<text x="216" y="224">TypeName</text>
</g>
<path d="M258 220h10"></path>
<path d="M268 220h10"></path>
<g class="non-terminal">
<path d="M278 220h0"></path>
<path d="M322 220h0"></path>
<rect x="278" y="209" width="44" height="22"></rect>
<text x="300" y="224">")"</text>
</g>
</g>
<path d="M322 220a10 10 0 0 0 10 -10v-100a10 10 0 0 1 10 -10"></path>
</g>
<path d="M342 100h10"></path>
<path d="M90 100a10 10 0 0 0 -10 10v119a10 10 0 0 0 10 10"></path>
<g>
<path d="M90 239h252"></path>
</g>
<path d="M342 239a10 10 0 0 0 10 -10v-119a10 10 0 0 0 -10 -10"></path>
</g>
<path d="M352 100h20"></path>
</g>
<path d="M372 100h10"></path>
<g class="non-terminal">
<path d="M382 100h0"></path>
<path d="M538 100h0"></path>
<rect x="382" y="89" width="156" height="22"></rect>
<text x="460" y="104">PostFixExpression</text>
</g>
</g>
<path d="M538 100h20"></path>
</g>
<path d="M 558 100 h 20 m -10 -10 v 20 m 10 -20 v 20"></path>
</g>

</svg>